HIERARCHY
ROOT Hips
{
	OFFSET 0.000000 0.000000 0.000000
	CHANNELS 6 Xposition Yposition Zposition Zrotation Yrotation Xrotation 
	JOINT LHipJoint
	{
		OFFSET 0.000000 0.000000 0.000000
		CHANNELS 3 Zrotation Yrotation Xrotation
		JOINT LeftUpLeg
		{
			OFFSET 1.363060 -1.794630 0.839290
			CHANNELS 3 Zrotation Yrotation Xrotation
			JOINT LeftLeg
			{
				OFFSET 2.448110 -6.726130 0.000000
				CHANNELS 3 Zrotation Yrotation Xrotation
				JOINT LeftFoot
				{
					OFFSET 2.562200 -7.039590 0.000000
					CHANNELS 3 Zrotation Yrotation Xrotation
					JOINT LeftToeBase
					{
						OFFSET 0.157640 -0.433110 2.322550
						CHANNELS 3 Zrotation Yrotation Xrotation
						End Site
						{
							OFFSET 0.000000 0.000000 0.000000
						}
					}
				}
			}
		}
	}
	JOINT RHipJoint
	{
		OFFSET 0.000000 0.000000 0.000000
		CHANNELS 3 Zrotation Yrotation Xrotation
		JOINT RightUpLeg
		{
			OFFSET -1.305520 -1.794630 0.839290
			CHANNELS 3 Zrotation Yrotation Xrotation
			JOINT RightLeg
			{
				OFFSET -2.542530 -6.985550 0.000000
				CHANNELS 3 Zrotation Yrotation Xrotation
				JOINT RightFoot
				{
					OFFSET -2.568260 -7.056230 0.000000
					CHANNELS 3 Zrotation Yrotation Xrotation
					JOINT RightToeBase
					{
						OFFSET -0.164730 -0.452590 2.363150
						CHANNELS 3 Zrotation Yrotation Xrotation
						End Site
						{
							OFFSET 0.000000 0.000000 0.000000
						}
					}
				}
			}
		}
	}
}
MOTION
Frames: 31
Frame Time: 0.008333
5.131681 18.498383 0.989679 54.717742 -84.976928 -28.256781 -11.181971 4.313801 3.843689 -4.105256 0.638112 -16.814492 -0.237223 0.433018 15.724422 1.701035 3.536982 38.892581 1.811100 -0.000000 -73.806300 12.110367 -3.090758 -0.812282 2.482086 -20.485039 -15.167967 1.353507 -1.009498 14.301849 -0.646001 5.412614 37.495482 4.005100 0.000000 -86.088901
4.912019 18.762745 0.973008 54.470331 -85.178558 -28.332307 -11.199228 4.336128 4.070235 -3.802570 0.069256 -16.399074 -0.121138 0.384409 15.172927 1.827184 4.280429 40.376429 2.379700 0.000000 -70.066500 12.093525 -3.133151 -0.738295 2.450719 -20.741321 -15.132961 1.329953 -0.983821 14.019460 -0.748874 5.336093 39.211955 4.095900 -0.000000 -83.143300
4.698771 19.016066 0.956259 55.010065 -85.392951 -29.019688 -11.197290 4.326935 4.258207 -3.681702 -0.378058 -16.533585 -0.029084 0.351004 15.316570 1.907771 5.239736 40.719202 3.084400 -0.000000 -66.762100 12.061910 -3.135269 -0.607027 2.485244 -20.657545 -15.599293 1.288342 -0.985920 14.374659 -0.815955 4.712214 39.634946 3.691101 0.000000 -80.936900
4.493267 19.257166 0.939095 56.419522 -85.621904 -30.429552 -11.178919 4.285180 4.391919 -3.727248 -0.667195 -17.125475 0.038403 0.331236 16.015027 1.953934 6.344920 40.152013 3.854500 0.000000 -64.708900 12.020640 -3.099118 -0.429858 2.563343 -20.227716 -16.457553 1.226200 -1.012066 15.230361 -0.854745 3.623112 38.951325 2.880900 0.000000 -79.736500
4.296453 19.484764 0.920958 58.710623 -85.857076 -32.603974 -11.147287 4.213158 4.452671 -3.926663 -0.716171 -18.123350 0.072740 0.328377 17.187995 1.964875 7.393338 38.810987 4.520300 0.000000 -63.247000 11.975440 -3.026630 -0.219041 2.659847 -19.500407 -17.625990 1.150253 -1.058135 16.485331 -0.869728 2.268134 37.323235 1.856300 -0.000001 -79.253300
4.108988 19.698517 0.901687 61.755792 -86.086452 -35.447872 -11.104863 4.112093 4.432642 -4.254653 -0.520369 -19.428687 0.073060 0.343379 18.685196 1.948713 8.286139 36.928165 5.006400 -0.000001 -62.487200 11.929877 -2.919484 0.006117 2.750636 -18.549459 -19.007592 1.071502 -1.118671 18.014215 -0.867314 0.862327 34.957340 0.819000 -0.000000 -79.180500
3.931179 19.898251 0.881194 65.293665 -86.295699 -38.734545 -11.054312 3.984669 4.326984 -4.683572 -0.088102 -20.949462 0.039039 0.378503 20.374850 1.909842 8.936922 34.699956 5.262500 -0.000001 -62.134800 11.886096 -2.780332 0.224699 2.818350 -17.469675 -20.510360 1.001706 -1.188488 19.686513 -0.854300 -0.415380 32.095164 -0.074200 -0.000000 -79.361600
3.762654 20.085082 0.859699 68.947033 -86.473735 -42.113976 -10.998555 3.833903 4.141483 -5.180840 0.527531 -22.589957 -0.024828 0.433336 22.112179 1.855244 9.333658 32.337681 5.308200 0.000001 -62.124000 11.843775 -2.613282 0.417408 2.856454 -16.352054 -22.053358 0.950351 -1.263113 21.370416 -0.836033 -1.453060 28.994274 -0.741700 0.000001 -79.692000
3.602392 20.259880 0.837553 72.291656 -86.615742 -45.178175 -10.940730 3.663837 3.889512 -5.715502 1.260319 -24.275708 -0.112469 0.505513 23.775006 1.790639 9.496323 30.019135 5.190500 -0.000000 -62.330100 11.801181 -2.423614 0.569685 2.867663 -15.276419 -23.581002 0.923278 -1.339552 22.959255 -0.813952 -2.198151 25.888579 -1.167000 -0.000000 -80.054900
3.448996 20.424219 0.815214 74.933766 -86.722431 -47.538046 -10.883598 3.478656 3.590474 -6.261319 2.039647 -25.959240 -0.217044 0.590663 25.267285 1.721104 9.468914 27.886432 4.969500 0.000001 -62.670900 11.755719 -2.217083 0.674493 2.863577 -14.297590 -25.065635 0.921840 -1.415373 24.373199 -0.787068 -2.652340 22.975414 -1.382900 0.000000 -80.412000
3.300782 20.579207 0.793060 76.580852 -86.797734 -48.895433 -10.828781 3.283035 3.267004 -6.800932 2.802609 -27.623787 -0.332965 0.683861 26.532766 1.649207 9.294669 26.015474 4.694000 -0.000000 -62.842900 11.704984 -1.999467 0.732797 2.858323 -13.446600 -26.509489 0.944784 -1.489455 25.577472 -0.751386 -2.837669 20.375229 -1.437200 0.000000 -80.486700
3.155911 20.725454 0.771481 77.067148 -86.846081 -49.070062 -10.777148 3.080023 2.942658 -7.321075 3.486329 -29.263243 -0.453476 0.778416 27.525299 1.580704 9.045487 24.476932 4.421301 -0.000000 -63.061900 11.646811 -1.775805 0.752089 2.865398 -12.724693 -27.921351 0.986980 -1.558916 26.538260 -0.708071 -2.823543 18.191585 -1.395100 0.000000 -80.575400
3.012702 20.863021 0.750717 76.361775 -86.868812 -48.017144 -10.728162 2.873007 2.638298 -7.817605 4.044844 -30.886689 -0.574388 0.868906 28.234327 1.518471 8.774402 23.272071 4.182900 -0.000000 -63.245400 11.579827 -1.550536 0.743807 2.893200 -12.120434 -29.324674 1.043948 -1.622642 27.262286 -0.656999 -2.664830 16.441555 -1.300600 0.000000 -80.615799
2.869609 20.991626 0.730862 74.563096 -86.863671 -45.821608 -10.680234 2.665265 2.370929 -8.291838 4.446665 -32.509817 -0.693424 0.951013 28.672055 1.464121 8.524012 22.357032 3.995699 -0.000000 -63.300900 11.503512 -1.327552 0.722092 2.943959 -11.610935 -30.744946 1.111761 -1.679919 27.773257 -0.599584 -2.414143 15.089268 -1.185000 -0.000000 -80.558999
2.725291 21.110597 0.711922 71.878913 -86.826611 -42.682250 -10.631367 2.459855 2.152821 -8.745962 4.670970 -34.140408 -0.808958 1.020932 28.855325 1.419647 8.334219 21.679452 3.872300 0.000000 -63.234200 11.418161 -1.110081 0.700663 3.013924 -11.167334 -32.198763 1.186987 -1.729911 28.095580 -0.539297 -2.123615 14.076214 -1.070600 0.000000 -80.428900
2.578827 21.219084 0.693821 68.598645 -86.754520 -38.887621 -10.579123 2.259919 1.990627 -9.182977 4.712929 -35.782331 -0.920924 1.076301 28.811473 1.385713 8.229267 21.168983 3.815300 -0.000001 -63.079100 11.324977 -0.900597 0.691411 3.094515 -10.762077 -33.695359 1.267421 -1.772324 28.259883 -0.479640 -1.834094 13.318552 -0.970300 0.000000 -80.255400
2.429480 21.315856 0.676386 65.045798 -86.646853 -34.765736 -10.521324 2.068919 1.885823 -9.605441 4.583212 -37.433471 -1.030574 1.115983 28.571698 1.361833 8.216847 20.754937 3.819600 -0.000000 -62.849700 11.225979 -0.701025 0.703481 3.174358 -10.372943 -35.235047 1.351926 -1.807021 28.296280 -0.423646 -1.574601 12.724715 -0.890900 0.000000 -80.041800
2.276814 21.400473 0.659436 61.518809 -86.507349 -30.625277 -10.456433 1.890298 1.835269 -10.015751 4.305177 -39.086286 -1.140110 1.139993 28.167975 1.346508 8.288380 20.377047 3.874100 0.000001 -62.565800 11.123630 -0.512707 0.742394 3.242064 -9.985167 -36.809424 1.439993 -1.833941 28.231296 -0.373563 -1.362231 12.211364 -0.835000 0.000000 -79.788500
2.120253 21.471775 0.642771 58.221346 -86.343127 -26.678157 -10.384119 1.727812 1.835294 -10.416929 3.911052 -40.741233 -1.252940 1.149598 27.637739 1.336429 8.415302 19.979437 3.958400 -0.000000 -62.103000 11.019962 -0.337810 0.813574 3.291394 -9.590589 -38.413656 1.532081 -1.852910 28.088181 -0.330387 -1.202182 11.708203 -0.802099 -0.000000 -79.437500
1.960602 21.529828 0.626087 55.306540 -86.164390 -23.105096 -10.305198 1.581939 1.870884 -10.810032 3.443603 -42.365332 -1.370634 1.145863 26.992147 1.330550 8.577186 19.580548 4.062599 -0.000000 -61.768700 10.917500 -0.174594 0.908457 3.314849 -9.196563 -40.013465 1.627548 -1.864346 27.877022 -0.294994 -1.092305 11.189196 -0.788999 0.000000 -79.112699
1.797937 21.575022 0.609275 52.798789 -85.981681 -19.943943 -10.221938 1.453708 1.932707 -11.198683 2.943065 -43.950584 -1.495582 1.130849 26.253091 1.324968 8.736306 19.191701 4.168699 0.000000 -61.551300 10.817312 -0.024171 1.023866 3.316702 -8.810395 -41.595376 1.726845 -1.868566 27.607986 -0.266466 -1.021050 10.644895 -0.790400 0.000000 -78.802100
1.631995 21.607007 0.592340 50.646636 -85.803616 -17.146411 -10.137192 1.344302 2.017025 -11.587918 2.439414 -45.506569 -1.629993 1.106994 25.443962 1.314714 8.853329 18.830107 4.259500 0.000001 -61.367500 10.719639 0.110480 1.160581 3.309221 -8.438010 -43.162853 1.831113 -1.866053 27.288125 -0.242561 -0.971922 10.086889 -0.800000 0.000000 -78.462300
1.463445 21.626792 0.575279 48.780960 -85.638878 -14.657405 -10.054407 1.251921 2.112398 -11.980267 1.965877 -47.021581 -1.774796 1.076957 24.575280 1.294993 8.894927 18.542515 4.323700 0.000000 -61.137701 10.624698 0.228829 1.309874 3.305899 -8.090998 -44.700158 1.940669 -1.858022 26.916980 -0.220310 -0.926191 9.557212 -0.811300 -0.000000 -78.110900
1.292741 21.634737 0.558185 47.114454 -85.494268 -12.395385 -9.977081 1.174224 2.212516 -12.374596 1.539071 -48.487933 -1.928458 1.041828 23.642569 1.263661 8.854227 18.402866 4.366100 0.000000 -61.103300 10.532337 0.329867 1.465325 3.323320 -7.775705 -46.201064 2.055811 -1.845576 26.489691 -0.196355 -0.869033 9.111256 -0.820000 -0.000001 -77.822900
1.120347 21.631678 0.541142 45.570254 -85.375087 -10.287485 -9.908047 1.108470 2.311727 -12.768728 1.169421 -49.898376 -2.089798 1.002718 22.645141 1.217961 8.723546 18.455754 4.387101 0.000000 -61.233100 10.442324 0.412839 1.620810 3.377209 -7.494488 -47.660218 2.176952 -1.829930 26.002130 -0.166598 -0.785286 8.800207 -0.822000 -0.000001 -77.617700
0.946518 21.618033 0.524434 44.040094 -85.285112 -8.226377 -9.849484 1.051935 2.407409 -13.158452 0.860162 -51.254478 -2.258033 0.960911 21.592141 1.155214 8.493236 18.706965 4.380301 0.000000 -61.312000 10.353686 0.476313 1.772858 3.483645 -7.243649 -49.075003 2.305184 -1.811511 25.448147 -0.127127 -0.663710 8.662621 -0.814700 -0.000000 -77.468500
0.772081 21.594209 0.507968 42.514355 -85.230007 -6.211383 -9.802771 0.999258 2.491625 -13.533783 0.610559 -52.521937 -2.428623 0.913594 20.454337 1.079278 8.196583 19.212095 4.362500 -0.000000 -61.750400 10.266510 0.523215 1.910990 3.647233 -7.020308 -50.422438 2.439688 -1.790432 24.818747 -0.075398 -0.498100 8.733979 -0.795300 0.000000 -77.496101
0.596841 21.560158 0.492017 40.902621 -85.209656 -4.149192 -9.767692 0.948441 2.565971 -13.889175 0.413167 -53.708452 -2.601683 0.861122 19.255000 0.989358 7.824223 19.900254 4.316400 0.000000 -62.159701 10.179610 0.552958 2.036014 3.874779 -6.813971 -51.700137 2.581974 -1.765378 24.110750 -0.009449 -0.283481 9.006937 -0.760700 0.000000 -77.610800
0.421218 21.516007 0.476568 39.182919 -85.223885 -2.026739 -9.742977 0.895975 2.626584 -14.219198 0.262744 -54.796578 -2.775457 0.801861 17.998846 0.888255 7.386903 20.721340 4.235900 -0.000001 -62.493600 10.092454 0.569014 2.142870 4.162272 -6.619295 -52.888040 2.732003 -1.734738 23.322273 0.070934 -0.017863 9.460288 -0.707100 -0.000001 -77.791700
0.245433 21.461181 0.461374 37.382946 -85.274152 0.121534 -9.726763 0.838179 2.668852 -14.519286 0.155848 -55.763319 -2.947773 0.732939 16.683684 0.780587 6.905297 21.624457 4.121700 -0.000000 -63.033500 10.004724 0.575783 2.227281 4.499154 -6.429960 -53.963785 2.888807 -1.696178 22.452612 0.164230 0.296547 10.057190 -0.631200 0.000001 -78.097300
0.069528 21.395633 0.446312 35.514281 -85.357319 2.279518 -9.716465 0.773090 2.691918 -14.786964 0.084362 -56.598309 -3.117705 0.652643 15.323113 0.668877 6.384997 22.522934 3.966500 0.000000 -63.534900 9.915907 0.577345 2.288467 4.871920 -6.241841 -54.913064 3.051528 -1.647244 21.507424 0.267891 0.655653 10.739729 -0.530700 0.000000 -78.440200
